<svg xmlns="http://www.w3.org/2000/svg" viewBox="0 0 512 512">
  <defs>
    <linearGradient id="leafGradient" x1="0%" y1="0%" x2="100%" y2="100%">
      <stop offset="0%" style="stop-color:#10b981;stop-opacity:1" />
      <stop offset="100%" style="stop-color:#059669;stop-opacity:1" />
    </linearGradient>
  </defs>
  
  <rect width="512" height="512" fill="#047857" rx="90"/>
  
  <!-- Font Awesome Leaf Icon Path -->
  <path d="M272 96c-78.6 0-145.1 51.5-167.7 122.5c33.6-17 71.5-26.5 111.7-26.5h88c8.8 0 16 7.2 16 16s-7.2 16-16 16H416 304c-17.7 0-32 14.3-32 32v48c0 17.7 14.3 32 32 32H496c17.7 0 32-14.3 32-32V240c0-79.5-64.5-144-144-144H272zM0 256a256 256 0 1 1 512 0A256 256 0 1 1 0 256zm328 88c0-11.8-9.6-21.3-21.3-21.3H264c-11.8 0-21.3 9.6-21.3 21.3c0 33.8 27.4 61.3 61.3 61.3s61.3-27.4 61.3-61.3z" 
        fill="url(#leafGradient)" 
        transform="translate(32, 80) scale(0.85)"/>
</svg>
